<svg width="189" height="79" viewBox="0 0 189 79" fill="none" xmlns="http://www.w3.org/2000/svg">
<path d="M4.5504 76.904V29.82H11.1232V37.404L10.112 36.8352C10.3648 35.5712 11.0811 34.3704 12.2608 33.2328C13.4405 32.0531 14.8731 31.1051 16.5584 30.3888C18.2859 29.6304 20.0555 29.2512 21.8672 29.2512C24.8587 29.2512 27.5131 29.9885 29.8304 31.4632C32.1477 32.9379 33.9805 34.9603 35.3288 37.5304C36.6771 40.1005 37.3512 43.0499 37.3512 46.3784C37.3512 49.6648 36.6771 52.6141 35.3288 55.2264C34.0227 57.7965 32.2109 59.84 29.8936 61.3568C27.5763 62.8315 24.964 63.5688 22.0568 63.5688C20.1187 63.5688 18.2437 63.1896 16.432 62.4312C14.6203 61.6307 13.0824 60.6195 11.8184 59.3976C10.5544 58.1757 9.77493 56.9117 9.48 55.6056L11.1232 54.7208V76.904H4.5504ZM20.9824 57.5648C22.9205 57.5648 24.648 57.0803 26.1648 56.1112C27.6816 55.1421 28.8824 53.8149 29.7672 52.1296C30.652 50.4443 31.0944 48.5272 31.0944 46.3784C31.0944 44.2296 30.652 42.3336 29.7672 40.6904C28.9245 39.0051 27.7448 37.6779 26.228 36.7088C24.7112 35.7397 22.9627 35.2552 20.9824 35.2552C19.0021 35.2552 17.2536 35.7397 15.7368 36.7088C14.22 37.6357 13.0192 38.9419 12.1344 40.6272C11.2496 42.3125 10.8072 44.2296 10.8072 46.3784C10.8072 48.5272 11.2496 50.4443 12.1344 52.1296C13.0192 53.8149 14.22 55.1421 15.7368 56.1112C17.2536 57.0803 19.0021 57.5648 20.9824 57.5648ZM59.3359 63.632C56.0917 63.632 53.1845 62.8947 50.6143 61.42C48.0863 59.9032 46.085 57.8597 44.6103 55.2896C43.1356 52.6773 42.3983 49.7069 42.3983 46.3784C42.3983 43.0499 43.1356 40.1005 44.6103 37.5304C46.085 34.9181 48.0863 32.8747 50.6143 31.4C53.1845 29.8832 56.0917 29.1248 59.3359 29.1248C62.5381 29.1248 65.4031 29.8832 67.9311 31.4C70.5013 32.8747 72.5237 34.9181 73.9983 37.5304C75.473 40.1005 76.2103 43.0499 76.2103 46.3784C76.2103 49.7069 75.473 52.6773 73.9983 55.2896C72.5237 57.8597 70.5013 59.9032 67.9311 61.42C65.4031 62.8947 62.5381 63.632 59.3359 63.632ZM59.3359 57.6912C61.3162 57.6912 63.0858 57.2067 64.6447 56.2376C66.2037 55.2264 67.4255 53.8781 68.3103 52.1928C69.1951 50.4653 69.6165 48.5272 69.5743 46.3784C69.6165 44.1875 69.1951 42.2493 68.3103 40.564C67.4255 38.8365 66.2037 37.4883 64.6447 36.5192C63.0858 35.5501 61.3162 35.0656 59.3359 35.0656C57.3557 35.0656 55.565 35.5712 53.9639 36.5824C52.405 37.5515 51.1831 38.8997 50.2983 40.6272C49.4135 42.3125 48.9922 44.2296 49.0343 46.3784C48.9922 48.5272 49.4135 50.4653 50.2983 52.1928C51.1831 53.8781 52.405 55.2264 53.9639 56.2376C55.565 57.2067 57.3557 57.6912 59.3359 57.6912ZM98.2187 63.632C94.9745 63.632 92.0673 62.8947 89.4971 61.42C86.9691 59.9032 84.9678 57.8597 83.4931 55.2896C82.0185 52.6773 81.2811 49.7069 81.2811 46.3784C81.2811 43.0499 82.0185 40.1005 83.4931 37.5304C84.9678 34.9181 86.9691 32.8747 89.4971 31.4C92.0673 29.8832 94.9745 29.1248 98.2187 29.1248C101.421 29.1248 104.286 29.8832 106.814 31.4C109.384 32.8747 111.406 34.9181 112.881 37.5304C114.356 40.1005 115.093 43.0499 115.093 46.3784C115.093 49.7069 114.356 52.6773 112.881 55.2896C111.406 57.8597 109.384 59.9032 106.814 61.42C104.286 62.8947 101.421 63.632 98.2187 63.632ZM98.2187 57.6912C100.199 57.6912 101.969 57.2067 103.528 56.2376C105.086 55.2264 106.308 53.8781 107.193 52.1928C108.078 50.4653 108.499 48.5272 108.457 46.3784C108.499 44.1875 108.078 42.2493 107.193 40.564C106.308 38.8365 105.086 37.4883 103.528 36.5192C101.969 35.5501 100.199 35.0656 98.2187 35.0656C96.2385 35.0656 94.4478 35.5712 92.8467 36.5824C91.2878 37.5515 90.0659 38.8997 89.1811 40.6272C88.2963 42.3125 87.875 44.2296 87.9171 46.3784C87.875 48.5272 88.2963 50.4653 89.1811 52.1928C90.0659 53.8781 91.2878 55.2264 92.8467 56.2376C94.4478 57.2067 96.2385 57.6912 98.2187 57.6912ZM122.313 63V16.232H128.822V63H122.313ZM139.122 63V29.82H145.632V63H139.122ZM142.282 22.4888C140.892 22.4888 139.818 22.1307 139.059 21.4144C138.301 20.6981 137.922 19.6869 137.922 18.3808C137.922 17.1589 138.301 16.1688 139.059 15.4104C139.86 14.652 140.934 14.2728 142.282 14.2728C143.673 14.2728 144.747 14.6309 145.506 15.3472C146.264 16.0635 146.643 17.0747 146.643 18.3808C146.643 19.6027 146.243 20.5928 145.442 21.3512C144.684 22.1096 143.631 22.4888 142.282 22.4888ZM155.638 63V29.82H162.148V36.6456L161.01 37.404C161.431 35.9293 162.253 34.5811 163.475 33.3592C164.697 32.0952 166.15 31.084 167.836 30.3256C169.521 29.5251 171.248 29.1248 173.018 29.1248C175.546 29.1248 177.653 29.6304 179.338 30.6416C181.023 31.6107 182.287 33.1064 183.13 35.1288C183.973 37.1512 184.394 39.7003 184.394 42.776V63H177.884V43.2184C177.884 41.3224 177.632 39.7635 177.126 38.5416C176.62 37.2776 175.841 36.3717 174.788 35.824C173.734 35.2341 172.428 34.9813 170.869 35.0656C169.605 35.0656 168.446 35.2763 167.393 35.6976C166.34 36.0768 165.413 36.6245 164.612 37.3408C163.854 38.0571 163.243 38.8997 162.78 39.8688C162.358 40.7957 162.148 41.8069 162.148 42.9024V63H158.924C158.377 63 157.829 63 157.281 63C156.733 63 156.186 63 155.638 63Z" fill="black"/>
<rect x="42.1333" y="21.0667" width="5.26667" height="73.7333" transform="rotate(-90 42.1333 21.0667)" fill="black"/>
</svg>
